<?xml version="1.0" encoding="UTF-8"?>
<svg version="1.1" viewBox="0 0 1600 1346" width="1600" height="1346" xmlns="http://www.w3.org/2000/svg">
<path transform="translate(938)" d="m0 0 10 2 7 5 8 16 36 78 15 33 19 41 17 37 18 39 15 33 19 41 51 111 18 39 15 33 19 41 15 33 19 41 15 33 19 41 3 7v9l-4 8-7 6-2 1-243 1h-56v176l-1 33-4 6-6 5-5 2h-9l-8-4-6-8-1-3v-208l-120 1-10 1 13 29 3 7 1 8-3 9-7 7-6 2h-207v75l-1 71-4 6-6 5-5 2h-9l-8-4-5-6-2-5v-144h-208l-8-4-5-6-2-6v-8l18-41 18-40 20-45 18-40 16-36 34-76 47-105 47-105 6-12 6-5 4-2h11l8 4 4 5 17 36 15 33 19 41 17 37 36 78 9 20 3-4 12-27 85-190 64-143 30-67 18-40 15-34 4-5 7-4zm1 69-16 36-18 40-43 96-64 143-20 45-18 40-20 45-18 40-20 45-18 40-17 38-4 9v3h562l-5-12-18-39-16-35-18-39-16-35-18-39-16-35-18-39-16-35-18-39-16-35-36-78-15-33-19-41-17-37-18-39-5-10zm-375 261-16 36-16 35-16 36-18 40-16 36-18 40-16 36-18 40-16 36-18 40-20 45v2h383l-3-9-7-14-10-1-113-1-6-3-5-6-2-5v-9l13-30 19-42 18-41 11-25-2-6-19-41-16-35-18-39-16-35-19-41-15-33-3-6z" fill="#BCBCBC"/>
<path transform="translate(574,1125)" d="m0 0 14 1 15 4 14 7 10 8 10 10 9 14 5 13 3 17v73l-3 17-6 15-8 12-7 8-10 8-12 7-15 5-14 2-17-1-15-4-16-8-11-9-9-10-8-13-1-5 10-4 4 1 6 11 11 12 11 7 12 5 8 2h21l15-4 11-6 11-9 8-11 6-13 3-15v-21l-7 8-8 8-14 9-13 5-9 2-17 1-14-2-15-5-14-8-13-12-9-13-6-13-3-10-1-7v-19l3-14 5-12 7-12 12-13 10-7 14-7 15-4zm-2 14-14 2-13 5-11 7-11 11-8 14-4 12-1 5v19l4 15 7 13 11 12 10 7 11 5 11 3h21l15-4 11-6 11-9 8-10 7-15 3-15v-11l-3-15-4-10-9-13-7-7-12-8-14-5-13-2z" fill="#22543D"/>
<path transform="translate(78,1125)" d="m0 0 14 1 15 4 14 7 9 7 7 6 9 12 7 14 4 14 1 14-1 1h-143l3 18 7 16 8 10 9 8 16 8 12 3h20l12-3 16-8 11-10 5-6h16l-4 8-11 13-10 8-12 7-15 5-15 2-16-1-15-4-16-8-13-11-9-11-8-15-4-14-1-7v-17l3-15 7-16 7-10 9-10 13-9 12-6 15-4zm-1 14-14 2-14 5-12 8-9 9-7 11-5 13-1 5h127l-1-8-5-12-9-12-10-9-10-6-16-5z" fill="#24553E"/>
<path transform="translate(792,1125)" d="m0 0 14 1 15 4 17 9 12 11 8 9 9 17 4 15 1 13-1 1h-143l2 15 5 13 7 12 10 10 14 8 11 4 5 1h21l15-4 11-6 10-8 7-9h17l-7 12-9 10-14 10-12 6-15 4-17 1-14-2-15-5-11-6-10-8-7-7-7-10-6-12-4-13-1-6v-21l4-16 4-10 8-12 9-10 10-8 16-8 15-4zm-1 14-15 2-15 6-11 8-9 9-7 11-5 15v2h127l-1-7-4-10-6-10-9-10-10-7-13-6-8-2z" fill="#24563E"/>
<path transform="translate(361,1125)" d="m0 0 14 1 15 4 16 8 11 9 9 10 8 14 5 13 2 11v10h-144l4 20 8 16 9 11 13 9 12 5 9 2h21l12-3 12-6 9-7 7-7 3-4h16l-2 5-8 11-9 9-14 9-11 5-13 3-16 1-15-2-12-4-12-6-10-8-10-10-9-14-5-13-3-17v-11l3-17 5-13 7-11 9-10 10-9 15-8 13-4zm0 14-15 2-11 4-11 6-12 11-7 11-5 11-1 8h127l-3-12-7-13-9-10-8-7-14-7-11-3z" fill="#24553E"/>
<path transform="translate(955,1125)" d="m0 0 18 2 13 4 13 7 9 7 9 9 9 14 5 12 3 12v13h-143l2 15 5 14 7 11 10 10 9 6 13 5 8 2h21l15-4 11-6 11-9 6-8h16l-2 6-8 10-10 10-11 7-13 6-12 3-17 1-14-2-15-5-11-6-10-8-8-8-9-14-6-15-2-10v-23l4-16 8-16 8-10 8-8 14-9 12-5 12-3zm-1 14-15 2-13 5-11 7-6 5-8 10-7 14-2 10h127l-2-10-7-14-8-10-11-9-13-6-10-3z" fill="#4B705F"/>
<path transform="translate(1394,1065)" d="m0 0h17l7 15 23 54 63 147v1h-17l-6-12-13-31-8-19h-115l-18 42-8 19-1 1h-17l3-9 18-41 23-54 5-11h17l-3 9-12 28 101 1-13-31-24-56-22-51z" fill="#83958C"/>
<path transform="translate(1112,1125)" d="m0 0 15 1 14 4 14 7 11 9 8 9 8 14 5 15 1 6v92h-14l-1-91-4-15-6-11-10-11-11-7-13-5-5-1h-20l-16 5-11 7-7 6-7 10-5 11-3 13-1 89h-14v-89l3-15 5-13 8-12 12-12 11-7 11-5 12-3z" fill="#678375"/>
<path transform="translate(141,1127)" d="m0 0h15l8 16 19 41 18 39 19 41 8-16 15-32 15-33 16-34 10-22h15l-3 9-15 32-15 33-15 32-15 33-8 16h-16l-15-32-15-33-15-32-12-26-14-31z" fill="#22543C"/>
<path transform="translate(1585,1065)" d="m0 0h15v217h-16v-216z" fill="#C0C0C0"/>
<path transform="translate(733,1125)" d="m0 0 3 1v13l-1 1-14 2-13 5-13 10-9 13-4 11-2 14-1 87h-14v-87l2-16 4-12 6-11 10-12 12-9 13-6 11-3z" fill="#24553E"/>
<path transform="translate(515,1125)" d="m0 0 3 1v13l-1 1-14 2-12 5-9 6-5 4-9 13-5 15-1 10-1 87h-13v-98l3-12 8-16 9-11 10-8 16-8 11-3z" fill="#21533C"/>
<path transform="translate(1518,1256)" d="m0 0h10l6 4 3 6v7l-3 6-5 4-7 1-7-2-5-6-1-3v-7l3-6z" fill="#86978F"/>
</svg>
